<mxfile host="app.diagrams.net" modified="2023-09-25T01:49:47.799Z" agent="Mozilla/5.0 (Windows NT 10.0; Win64; x64) AppleWebKit/537.36 (KHTML, like Gecko) Chrome/115.0.0.0 Safari/537.36 Edg/115.0.1901.200" version="21.8.2" etag="d5Nn2ux4c-BOlcVozxZQ" type="github">
  <diagram name="페이지-1" id="X0Y-Mo_kn28BR5MziYlO">
    <mxGraphModel>
      <root>
        <mxCell id="0" />
        <mxCell id="1" parent="0" />
      </root>
    </mxGraphModel>
  </diagram>
</mxfile>
